<svg id="visual" viewBox="0 0 900 600" width="900" height="600" xmlns="http://www.w3.org/2000/svg" xmlns:xlink="http://www.w3.org/1999/xlink" version="1.1"><g stroke-width="1" stroke-linejoin="bevel"><path d="M502 303.9L498 410.6L553 304.1Z" fill="#9a9d9f" stroke="#9a9d9f"></path><path d="M502 303.9L469 378.9L498 410.6Z" fill="#abb2b6" stroke="#abb2b6"></path><path d="M469 378.9L495 422.6L498 410.6Z" fill="#d5e6ee" stroke="#d5e6ee"></path><path d="M498 410.6L656 405.6L553 304.1Z" fill="#cfdee6" stroke="#cfdee6"></path><path d="M495 422.6L553 468.3L498 410.6Z" fill="#b1babe" stroke="#b1babe"></path><path d="M656 405.6L651 305.1L553 304.1Z" fill="#cfdee6" stroke="#cfdee6"></path><path d="M553 468.3L656 405.6L498 410.6Z" fill="#d5e6ee" stroke="#d5e6ee"></path><path d="M553 468.3L610 483.3L656 405.6Z" fill="#cfdee6" stroke="#cfdee6"></path><path d="M656 405.6L679 365.9L651 305.1Z" fill="#c3d0d6" stroke="#c3d0d6"></path><path d="M319 512.3L483 526.3L495 422.6Z" fill="#a6abaf" stroke="#a6abaf"></path><path d="M495 422.6L483 526.3L553 468.3Z" fill="#c3d0d6" stroke="#c3d0d6"></path><path d="M553 468.3L530 600L610 483.3Z" fill="#a6abaf" stroke="#a6abaf"></path><path d="M553 304.1L443 206.1L502 303.9Z" fill="#a6abaf" stroke="#a6abaf"></path><path d="M502 303.9L349 376.6L469 378.9Z" fill="#d5e6ee" stroke="#d5e6ee"></path><path d="M469 378.9L349 376.6L495 422.6Z" fill="#b7c1c6" stroke="#b7c1c6"></path><path d="M563 138.4L443 206.1L553 304.1Z" fill="#c9d7de" stroke="#c9d7de"></path><path d="M388 215.4L349 376.6L502 303.9Z" fill="#abb2b6" stroke="#abb2b6"></path><path d="M388 215.4L336 367.9L349 376.6Z" fill="#d5e6ee" stroke="#d5e6ee"></path><path d="M319 512.3L450 600L483 526.3Z" fill="#d5e6ee" stroke="#d5e6ee"></path><path d="M443 206.1L388 215.4L502 303.9Z" fill="#9a9d9f" stroke="#9a9d9f"></path><path d="M388 215.4L320 351.9L336 367.9Z" fill="#d5e6ee" stroke="#d5e6ee"></path><path d="M450 600L530 600L483 526.3Z" fill="#a6abaf" stroke="#a6abaf"></path><path d="M678 563.3L735 403.6L656 405.6Z" fill="#cfdee6" stroke="#cfdee6"></path><path d="M656 405.6L735 403.6L679 365.9Z" fill="#b1babe" stroke="#b1babe"></path><path d="M679 365.9L746 315.9L651 305.1Z" fill="#a0a4a7" stroke="#a0a4a7"></path><path d="M641 159.4L553 304.1L651 305.1Z" fill="#b1babe" stroke="#b1babe"></path><path d="M641 159.4L563 138.4L553 304.1Z" fill="#b7c1c6" stroke="#b7c1c6"></path><path d="M443 206.1L403 168.4L388 215.4Z" fill="#abb2b6" stroke="#abb2b6"></path><path d="M735 403.6L746 315.9L679 365.9Z" fill="#a0a4a7" stroke="#a0a4a7"></path><path d="M474 60.7L403 168.4L443 206.1Z" fill="#cfdee6" stroke="#cfdee6"></path><path d="M388 215.4L314 219.1L320 351.9Z" fill="#abb2b6" stroke="#abb2b6"></path><path d="M742 241.1L641 159.4L651 305.1Z" fill="#9a9d9f" stroke="#9a9d9f"></path><path d="M495 422.6L349 376.6L319 512.3Z" fill="#b1babe" stroke="#b1babe"></path><path d="M483 526.3L530 600L553 468.3Z" fill="#9a9d9f" stroke="#9a9d9f"></path><path d="M610 483.3L678 563.3L656 405.6Z" fill="#c3d0d6" stroke="#c3d0d6"></path><path d="M746 315.9L742 241.1L651 305.1Z" fill="#c9d7de" stroke="#c9d7de"></path><path d="M319 512.3L349 376.6L252 453.6Z" fill="#c3d0d6" stroke="#c3d0d6"></path><path d="M658 600L678 563.3L610 483.3Z" fill="#bdc8ce" stroke="#bdc8ce"></path><path d="M313 181.4L314 219.1L388 215.4Z" fill="#cfdee6" stroke="#cfdee6"></path><path d="M619 84.7L567 106.7L563 138.4Z" fill="#a6abaf" stroke="#a6abaf"></path><path d="M563 138.4L474 60.7L443 206.1Z" fill="#a0a4a7" stroke="#a0a4a7"></path><path d="M252 453.6L349 376.6L336 367.9Z" fill="#d5e6ee" stroke="#d5e6ee"></path><path d="M252 453.6L336 367.9L320 351.9Z" fill="#9a9d9f" stroke="#9a9d9f"></path><path d="M841 514.3L786 395.6L735 403.6Z" fill="#b7c1c6" stroke="#b7c1c6"></path><path d="M735 403.6L786 395.6L746 315.9Z" fill="#b7c1c6" stroke="#b7c1c6"></path><path d="M840 304.1L786 212.4L742 241.1Z" fill="#c9d7de" stroke="#c9d7de"></path><path d="M530 600L658 600L610 483.3Z" fill="#c3d0d6" stroke="#c3d0d6"></path><path d="M678 563.3L841 514.3L735 403.6Z" fill="#d5e6ee" stroke="#d5e6ee"></path><path d="M349 34.7L313 181.4L403 168.4Z" fill="#c9d7de" stroke="#c9d7de"></path><path d="M403 168.4L313 181.4L388 215.4Z" fill="#abb2b6" stroke="#abb2b6"></path><path d="M314 219.1L256 270.1L320 351.9Z" fill="#a6abaf" stroke="#a6abaf"></path><path d="M786 395.6L811 342.9L746 315.9Z" fill="#b7c1c6" stroke="#b7c1c6"></path><path d="M313 181.4L256 270.1L314 219.1Z" fill="#d5e6ee" stroke="#d5e6ee"></path><path d="M687 55.7L619 84.7L641 159.4Z" fill="#c3d0d6" stroke="#c3d0d6"></path><path d="M641 159.4L619 84.7L563 138.4Z" fill="#a6abaf" stroke="#a6abaf"></path><path d="M567 106.7L474 60.7L563 138.4Z" fill="#b1babe" stroke="#b1babe"></path><path d="M658 600L686 600L678 563.3Z" fill="#c3d0d6" stroke="#c3d0d6"></path><path d="M186 389.6L252 453.6L320 351.9Z" fill="#b1babe" stroke="#b1babe"></path><path d="M840 304.1L742 241.1L746 315.9Z" fill="#a0a4a7" stroke="#a0a4a7"></path><path d="M742 241.1L742 149.4L641 159.4Z" fill="#c3d0d6" stroke="#c3d0d6"></path><path d="M786 212.4L742 149.4L742 241.1Z" fill="#cfdee6" stroke="#cfdee6"></path><path d="M584 0L474 60.7L567 106.7Z" fill="#d5e6ee" stroke="#d5e6ee"></path><path d="M811 342.9L840 304.1L746 315.9Z" fill="#9a9d9f" stroke="#9a9d9f"></path><path d="M900 388.9L840 304.1L811 342.9Z" fill="#9a9d9f" stroke="#9a9d9f"></path><path d="M900 388.9L811 342.9L786 395.6Z" fill="#d5e6ee" stroke="#d5e6ee"></path><path d="M224 547.3L310 600L319 512.3Z" fill="#b7c1c6" stroke="#b7c1c6"></path><path d="M319 512.3L310 600L450 600Z" fill="#9a9d9f" stroke="#9a9d9f"></path><path d="M140 256.1L194 325.9L256 270.1Z" fill="#c9d7de" stroke="#c9d7de"></path><path d="M256 270.1L194 325.9L320 351.9Z" fill="#bdc8ce" stroke="#bdc8ce"></path><path d="M252 453.6L224 547.3L319 512.3Z" fill="#a6abaf" stroke="#a6abaf"></path><path d="M686 600L763 600L678 563.3Z" fill="#cfdee6" stroke="#cfdee6"></path><path d="M742 149.4L687 55.7L641 159.4Z" fill="#cfdee6" stroke="#cfdee6"></path><path d="M619 84.7L584 0L567 106.7Z" fill="#a6abaf" stroke="#a6abaf"></path><path d="M678 0L687 55.7L705 0Z" fill="#a0a4a7" stroke="#a0a4a7"></path><path d="M194 325.9L186 389.6L320 351.9Z" fill="#bdc8ce" stroke="#bdc8ce"></path><path d="M763 600L841 514.3L678 563.3Z" fill="#bdc8ce" stroke="#bdc8ce"></path><path d="M159 480.3L224 547.3L252 453.6Z" fill="#a0a4a7" stroke="#a0a4a7"></path><path d="M678 0L584 0L619 84.7Z" fill="#a6abaf" stroke="#a6abaf"></path><path d="M584 0L458 0L474 60.7Z" fill="#abb2b6" stroke="#abb2b6"></path><path d="M474 60.7L349 34.7L403 168.4Z" fill="#bdc8ce" stroke="#bdc8ce"></path><path d="M152 186.4L140 256.1L256 270.1Z" fill="#c9d7de" stroke="#c9d7de"></path><path d="M458 0L349 34.7L474 60.7Z" fill="#cfdee6" stroke="#cfdee6"></path><path d="M900 421.6L900 388.9L786 395.6Z" fill="#c3d0d6" stroke="#c3d0d6"></path><path d="M840 304.1L900 247.1L786 212.4Z" fill="#a0a4a7" stroke="#a0a4a7"></path><path d="M705 0L687 55.7L814 72.7Z" fill="#a6abaf" stroke="#a6abaf"></path><path d="M841 514.3L900 421.6L786 395.6Z" fill="#9a9d9f" stroke="#9a9d9f"></path><path d="M224 547.3L235 600L310 600Z" fill="#d5e6ee" stroke="#d5e6ee"></path><path d="M215 600L235 600L224 547.3Z" fill="#abb2b6" stroke="#abb2b6"></path><path d="M349 34.7L286 64.7L313 181.4Z" fill="#a6abaf" stroke="#a6abaf"></path><path d="M121 413.6L159 480.3L186 389.6Z" fill="#c9d7de" stroke="#c9d7de"></path><path d="M186 389.6L159 480.3L252 453.6Z" fill="#bdc8ce" stroke="#bdc8ce"></path><path d="M814 72.7L742 149.4L786 212.4Z" fill="#d5e6ee" stroke="#d5e6ee"></path><path d="M687 55.7L678 0L619 84.7Z" fill="#b7c1c6" stroke="#b7c1c6"></path><path d="M900 388.9L900 247.1L840 304.1Z" fill="#b7c1c6" stroke="#b7c1c6"></path><path d="M85 600L215 600L224 547.3Z" fill="#a6abaf" stroke="#a6abaf"></path><path d="M814 72.7L687 55.7L742 149.4Z" fill="#cfdee6" stroke="#cfdee6"></path><path d="M152 186.4L256 270.1L313 181.4Z" fill="#bdc8ce" stroke="#bdc8ce"></path><path d="M194 325.9L121 413.6L186 389.6Z" fill="#b7c1c6" stroke="#b7c1c6"></path><path d="M900 170.4L814 72.7L786 212.4Z" fill="#bdc8ce" stroke="#bdc8ce"></path><path d="M70 298.9L121 413.6L194 325.9Z" fill="#d5e6ee" stroke="#d5e6ee"></path><path d="M159 480.3L85 600L224 547.3Z" fill="#b1babe" stroke="#b1babe"></path><path d="M286 64.7L152 186.4L313 181.4Z" fill="#bdc8ce" stroke="#bdc8ce"></path><path d="M121 413.6L126 465.3L159 480.3Z" fill="#9a9d9f" stroke="#9a9d9f"></path><path d="M900 600L900 542.3L841 514.3Z" fill="#cfdee6" stroke="#cfdee6"></path><path d="M841 514.3L900 542.3L900 421.6Z" fill="#a0a4a7" stroke="#a0a4a7"></path><path d="M900 247.1L900 170.4L786 212.4Z" fill="#c3d0d6" stroke="#c3d0d6"></path><path d="M349 34.7L310 0L286 64.7Z" fill="#c3d0d6" stroke="#c3d0d6"></path><path d="M140 94.7L128 174.4L152 186.4Z" fill="#b7c1c6" stroke="#b7c1c6"></path><path d="M458 0L310 0L349 34.7Z" fill="#d5e6ee" stroke="#d5e6ee"></path><path d="M140 94.7L152 186.4L286 64.7Z" fill="#d5e6ee" stroke="#d5e6ee"></path><path d="M152 186.4L128 174.4L140 256.1Z" fill="#c3d0d6" stroke="#c3d0d6"></path><path d="M140 256.1L70 298.9L194 325.9Z" fill="#bdc8ce" stroke="#bdc8ce"></path><path d="M763 600L900 600L841 514.3Z" fill="#cfdee6" stroke="#cfdee6"></path><path d="M900 170.4L900 113.7L814 72.7Z" fill="#b7c1c6" stroke="#b7c1c6"></path><path d="M814 72.7L819 0L705 0Z" fill="#b7c1c6" stroke="#b7c1c6"></path><path d="M47 285.1L70 298.9L140 256.1Z" fill="#9a9d9f" stroke="#9a9d9f"></path><path d="M121 413.6L0 438.6L126 465.3Z" fill="#a0a4a7" stroke="#a0a4a7"></path><path d="M900 0L819 0L814 72.7Z" fill="#cfdee6" stroke="#cfdee6"></path><path d="M222 0L140 94.7L286 64.7Z" fill="#b1babe" stroke="#b1babe"></path><path d="M128 174.4L47 285.1L140 256.1Z" fill="#a6abaf" stroke="#a6abaf"></path><path d="M310 0L222 0L286 64.7Z" fill="#a0a4a7" stroke="#a0a4a7"></path><path d="M140 94.7L106 136.7L128 174.4Z" fill="#b7c1c6" stroke="#b7c1c6"></path><path d="M0 226.1L47 285.1L128 174.4Z" fill="#bdc8ce" stroke="#bdc8ce"></path><path d="M70 298.9L0 349.9L121 413.6Z" fill="#9a9d9f" stroke="#9a9d9f"></path><path d="M222 0L177 0L140 94.7Z" fill="#a6abaf" stroke="#a6abaf"></path><path d="M0 112.7L0 129.4L106 136.7Z" fill="#b1babe" stroke="#b1babe"></path><path d="M0 479.3L85 600L126 465.3Z" fill="#b7c1c6" stroke="#b7c1c6"></path><path d="M126 465.3L85 600L159 480.3Z" fill="#c9d7de" stroke="#c9d7de"></path><path d="M900 113.7L900 0L814 72.7Z" fill="#abb2b6" stroke="#abb2b6"></path><path d="M0 226.1L0 349.9L47 285.1Z" fill="#a6abaf" stroke="#a6abaf"></path><path d="M47 285.1L0 349.9L70 298.9Z" fill="#a6abaf" stroke="#a6abaf"></path><path d="M0 349.9L0 438.6L121 413.6Z" fill="#bdc8ce" stroke="#bdc8ce"></path><path d="M177 0L126 0L140 94.7Z" fill="#c3d0d6" stroke="#c3d0d6"></path><path d="M106 136.7L0 226.1L128 174.4Z" fill="#bdc8ce" stroke="#bdc8ce"></path><path d="M0 438.6L0 479.3L126 465.3Z" fill="#b7c1c6" stroke="#b7c1c6"></path><path d="M0 129.4L0 226.1L106 136.7Z" fill="#c9d7de" stroke="#c9d7de"></path><path d="M0 112.7L106 136.7L140 94.7Z" fill="#a0a4a7" stroke="#a0a4a7"></path><path d="M0 479.3L0 600L85 600Z" fill="#b1babe" stroke="#b1babe"></path><path d="M126 0L0 112.7L140 94.7Z" fill="#cfdee6" stroke="#cfdee6"></path><path d="M126 0L0 0L0 112.7Z" fill="#abb2b6" stroke="#abb2b6"></path></g></svg>